<svg width="203" height="200" viewBox="0 0 203 200" fill="none" xmlns="http://www.w3.org/2000/svg">
<g filter="url(#filter0_d_82_186)">
<path d="M34.3964 10.6787C34.3355 9.55225 35.2178 8.5984 36.3456 8.57141L193.027 4.82172C194.138 4.79513 195.058 5.67937 195.075 6.79056L197.805 185.314C197.822 186.41 196.953 187.316 195.857 187.344L46.0973 191.255C45.0147 191.284 44.1064 190.445 44.048 189.364L34.3964 10.6787Z" fill="#1865AD"/>
<path d="M35.8942 10.5978C35.879 10.3162 36.0995 10.0777 36.3815 10.071L193.063 6.32129C193.341 6.31464 193.571 6.53571 193.575 6.8135L196.305 185.337C196.309 185.611 196.092 185.838 195.818 185.845L46.0581 189.756C45.7875 189.763 45.5604 189.553 45.5458 189.283L35.8942 10.5978Z" stroke="#EFF4FF" stroke-width="3"/>
</g>
<path d="M59.5493 22.8304L176.063 24.4791L178.721 27.2647L64.3204 28.3889L59.5493 22.8304Z" fill="white"/>
<path d="M64.218 32.7436L180.732 34.3922L183.39 37.1779L68.9892 38.3021L64.218 32.7436Z" fill="white"/>
<path d="M50.3759 59.6782C50.216 58.7681 50.909 57.9313 51.833 57.9188L62.0217 57.7809C62.8987 57.7691 63.5988 58.509 63.5384 59.3841L62.971 67.6037C62.9232 68.2967 62.4058 68.8662 61.7205 68.9801L53.7517 70.3048C52.9398 70.4397 52.1708 69.8953 52.0284 69.0846L50.3759 59.6782Z" fill="#EAEBEC" stroke="white"/>
<path d="M55.0389 64.1168L58.2474 66.6431L65.807 57.8342" stroke="#4F4F4F" stroke-width="2"/>
<path d="M50.4597 79.2871C50.2998 78.377 50.9929 77.5401 51.9168 77.5277L62.1055 77.3898C62.9826 77.378 63.6826 78.1179 63.6222 78.993L63.0549 87.2126C63.007 87.9056 62.4896 88.4751 61.8044 88.589L53.8356 89.9137C53.0236 90.0486 52.2546 89.5041 52.1122 88.6935L50.4597 79.2871Z" fill="#EAEBEC" stroke="white"/>
<path d="M55.1228 83.7257L58.3312 86.252L65.8908 77.4431" stroke="#4F4F4F" stroke-width="2"/>
<path d="M49.9992 98.883C49.8393 97.9729 50.5324 97.1361 51.4563 97.1236L61.645 96.9858C62.5221 96.9739 63.2221 97.7139 63.1617 98.5889L62.5944 106.809C62.5465 107.502 62.0291 108.071 61.3439 108.185L53.3751 109.51C52.5631 109.645 51.7941 109.1 51.6517 108.289L49.9992 98.883Z" fill="#EAEBEC" stroke="white"/>
<path d="M54.6623 103.322L57.8707 105.848L65.4304 97.0393" stroke="#4F4F4F" stroke-width="2"/>
<path d="M49.5387 118.479C49.3789 117.569 50.0719 116.732 50.9958 116.72L61.1845 116.582C62.0616 116.57 62.7617 117.31 62.7013 118.185L62.1339 126.405C62.086 127.098 61.5687 127.667 60.8834 127.781L52.9146 129.106C52.1027 129.241 51.3336 128.696 51.1912 127.886L49.5387 118.479Z" fill="#EAEBEC" stroke="white"/>
<path d="M49.0783 138.075C48.9184 137.165 49.6114 136.328 50.5353 136.316L60.724 136.178C61.6011 136.166 62.3012 136.906 62.2408 137.781L61.6734 146.001C61.6256 146.694 61.1082 147.263 60.4229 147.377L52.4541 148.702C51.6422 148.837 50.8731 148.292 50.7307 147.482L49.0783 138.075Z" fill="#EAEBEC" stroke="white"/>
<path d="M53.7413 142.514L56.9498 145.041L64.5094 136.232" stroke="#4F4F4F" stroke-width="2"/>
<path d="M50.7439 159.9C50.5841 158.99 51.2771 158.153 52.201 158.141L62.3897 158.003C63.2668 157.991 63.9669 158.731 63.9065 159.606L63.3391 167.826C63.2912 168.519 62.7739 169.088 62.0886 169.202L54.1198 170.527C53.3079 170.662 52.5388 170.117 52.3964 169.307L50.7439 159.9Z" fill="#EAEBEC" stroke="white"/>
<path d="M69.0858 57.3667L163.775 60.6811L165.331 63.9855L71.148 62.3169L69.0858 57.3667Z" fill="#F6F7FB"/>
<path d="M71.654 63.9626L132.62 65.3953L134.746 67.6238L74.2989 67.2926L71.654 63.9626Z" fill="#F6F7FB"/>
<path d="M69.1697 76.9756L163.859 80.29L165.415 83.5944L71.2319 81.9258L69.1697 76.9756Z" fill="#F6F7FB"/>
<path d="M71.7379 83.5718L132.704 85.0044L134.83 87.2329L74.3828 86.9018L71.7379 83.5718Z" fill="#F6F7FB"/>
<path d="M69.2535 96.5845L163.943 99.8988L165.499 103.203L71.3157 101.535L69.2535 96.5845Z" fill="#F6F7FB"/>
<path d="M71.8217 103.181L132.787 104.613L134.914 106.842L74.4666 106.511L71.8217 103.181Z" fill="#F6F7FB"/>
<path d="M69.3374 116.194L164.026 119.508L165.583 122.812L71.3996 121.144L69.3374 116.194Z" fill="#F6F7FB"/>
<path d="M71.9056 122.79L132.871 124.222L134.997 126.451L74.5505 126.12L71.9056 122.79Z" fill="#F6F7FB"/>
<path d="M69.4212 135.802L164.11 139.117L165.667 142.421L71.4834 140.753L69.4212 135.802Z" fill="#F6F7FB"/>
<path d="M71.9894 142.399L132.955 143.831L135.081 146.06L74.6343 145.729L71.9894 142.399Z" fill="#F6F7FB"/>
<path d="M69.4212 135.802L164.11 139.117L165.667 142.421L71.4834 140.753L69.4212 135.802Z" fill="#F6F7FB"/>
<path d="M71.9894 142.399L132.955 143.831L135.081 146.06L74.6343 145.729L71.9894 142.399Z" fill="#F6F7FB"/>
<path d="M71.6312 157.64L166.32 160.954L167.877 164.259L73.6935 162.59L71.6312 157.64Z" fill="#F6F7FB"/>
<path d="M74.1994 164.236L135.165 165.668L137.291 167.897L76.8444 167.566L74.1994 164.236Z" fill="#F6F7FB"/>
<path d="M48.3074 26.2199C48.9494 24.6192 49.2705 23.8188 49.7921 23.7079C49.9292 23.6787 50.071 23.6787 50.2081 23.7079C50.7297 23.8188 51.0507 24.6192 51.6928 26.2199C52.0579 27.1301 52.2405 27.5853 52.5821 27.8949C52.6779 27.9817 52.7819 28.059 52.8927 28.1258C53.2875 28.3637 53.7804 28.4079 54.7662 28.4962C56.435 28.6456 57.2693 28.7203 57.5241 29.1961C57.5769 29.2946 57.6128 29.4013 57.6303 29.5117C57.7148 30.0447 57.1014 30.6028 55.8746 31.7189L55.5339 32.0288C54.9604 32.5506 54.6736 32.8115 54.5077 33.1372C54.4082 33.3325 54.3415 33.5428 54.3102 33.7598C54.2581 34.1215 54.3421 34.5 54.51 35.2569L54.5701 35.5274C54.8713 36.8849 55.0219 37.5637 54.8339 37.8973C54.665 38.197 54.3539 38.3889 54.0103 38.4053C53.6278 38.4236 53.0888 37.9844 52.0109 37.106C51.3007 36.5273 50.9455 36.2379 50.5513 36.1249C50.1911 36.0216 49.8091 36.0216 49.4488 36.1249C49.0546 36.2379 48.6995 36.5273 47.9893 37.106C46.9113 37.9844 46.3723 38.4236 45.9898 38.4053C45.6462 38.3889 45.3352 38.197 45.1663 37.8973C44.9783 37.5637 45.1289 36.8849 45.4301 35.5274L45.4901 35.2569C45.6581 34.5 45.742 34.1215 45.6899 33.7598C45.6587 33.5428 45.5919 33.3325 45.4924 33.1372C45.3266 32.8115 45.0398 32.5506 44.4663 32.0288L44.1256 31.7189C42.8988 30.6028 42.2854 30.0447 42.3699 29.5117C42.3874 29.4013 42.4232 29.2946 42.476 29.1961C42.7308 28.7203 43.5652 28.6456 45.234 28.4962C46.2197 28.4079 46.7126 28.3637 47.1075 28.1258C47.2182 28.059 47.3222 27.9817 47.4181 27.8949C47.7597 27.5853 47.9422 27.1301 48.3074 26.2199Z" fill="white" stroke="white" stroke-width="2"/>
<path d="M14.3073 36.2201C14.9494 34.6194 15.2704 33.8191 15.792 33.7082C15.9291 33.679 16.0709 33.679 16.208 33.7082C16.7296 33.8191 17.0506 34.6194 17.6927 36.2201C18.0579 37.1304 18.2404 37.5855 18.582 37.8951C18.6779 37.9819 18.7819 38.0593 18.8926 38.126C19.2875 38.364 19.7803 38.4081 20.7661 38.4964C22.4349 38.6459 23.2693 38.7206 23.5241 39.1963C23.5768 39.2949 23.6127 39.4015 23.6302 39.5119C23.7147 40.045 23.1013 40.603 21.8745 41.7191L21.5338 42.0291C20.9603 42.5509 20.6735 42.8118 20.5076 43.1374C20.4081 43.3327 20.3414 43.5431 20.3102 43.76C20.2581 44.1217 20.342 44.5002 20.51 45.2572L20.57 45.5276C20.8712 46.8852 21.0218 47.5639 20.8338 47.8976C20.6649 48.1973 20.3539 48.3891 20.0103 48.4055C19.6278 48.4238 19.0888 47.9846 18.0108 47.1062C17.3006 46.5275 16.9455 46.2381 16.5513 46.1251C16.191 46.0218 15.809 46.0218 15.4488 46.1251C15.0545 46.2381 14.6994 46.5275 13.9892 47.1062C12.9113 47.9846 12.3723 48.4238 11.9897 48.4055C11.6461 48.3891 11.3351 48.1973 11.1662 47.8976C10.9782 47.5639 11.1288 46.8852 11.43 45.5277L11.49 45.2572C11.658 44.5002 11.742 44.1217 11.6899 43.76C11.6586 43.5431 11.5919 43.3327 11.4924 43.1374C11.3265 42.8118 11.0397 42.5509 10.4662 42.0291L10.1255 41.7191C8.89873 40.603 8.28534 40.045 8.36981 39.5119C8.3873 39.4015 8.42318 39.2949 8.47595 39.1963C8.73075 38.7206 9.56514 38.6459 11.2339 38.4964C12.2197 38.4081 12.7126 38.364 13.1074 38.126C13.2182 38.0593 13.3222 37.9819 13.418 37.8951C13.7596 37.5855 13.9422 37.1304 14.3073 36.2201Z" fill="white" stroke="white" stroke-width="2"/>
<defs>
<filter id="filter0_d_82_186" x="30.3934" y="4.82104" width="171.412" height="194.435" filterUnits="userSpaceOnUse" color-interpolation-filters="sRGB">
<feFlood flood-opacity="0" result="BackgroundImageFix"/>
<feColorMatrix in="SourceAlpha" type="matrix" values="0 0 0 0 0 0 0 0 0 0 0 0 0 0 0 0 0 0 127 0" result="hardAlpha"/>
<feOffset dy="4"/>
<feGaussianBlur stdDeviation="2"/>
<feComposite in2="hardAlpha" operator="out"/>
<feColorMatrix type="matrix" values="0 0 0 0 0 0 0 0 0 0 0 0 0 0 0 0 0 0 0.25 0"/>
<feBlend mode="normal" in2="BackgroundImageFix" result="effect1_dropShadow_82_186"/>
<feBlend mode="normal" in="SourceGraphic" in2="effect1_dropShadow_82_186" result="shape"/>
</filter>
</defs>
</svg>
