<svg width="20" height="33" viewBox="0 0 20 33" fill="none" xmlns="http://www.w3.org/2000/svg">
<path d="M2.98453 2.84543L3.0081 2.81954L3.02998 2.79221C4.00459 1.57418 4.86213 1.23055 5.3779 1.13386C5.38531 1.13247 5.39266 1.13113 5.39998 1.12983V17.419H1.43313C1.40096 17.1315 1.36489 16.7861 1.32862 16.3939C1.21623 15.1786 1.10291 13.5234 1.09705 11.7556C1.09117 9.98178 1.19378 8.12778 1.50093 6.50338C1.81399 4.84774 2.31236 3.58357 2.98453 2.84543Z" stroke="#1865AD" stroke-width="2.19363"/>
<path d="M9.36568 29.8472L9.34021 29.8719L9.31638 29.8981C8.36126 30.9493 7.50559 31.2625 6.95898 31.3528C6.94539 31.355 6.93194 31.3571 6.91863 31.3591L6.91863 17.3387L10.9232 17.3387C10.9504 17.5663 10.98 17.8302 11.0096 18.1245C11.1163 19.1852 11.2222 20.6284 11.2218 22.1685C11.2214 23.715 11.1135 25.3223 10.808 26.7244C10.4971 28.1514 10.0115 29.2227 9.36568 29.8472Z" stroke="#1865AD" stroke-width="2.19363"/>
<circle cx="10.0445" cy="16.5667" r="8.64837" fill="#CAECFB" stroke="#1865AD" stroke-width="2.19363"/>
<circle cx="10.0447" cy="16.5669" r="3.1261" fill="white" stroke="#1865AD" stroke-width="2.19363"/>
<rect x="5.82178" y="16.8916" width="1.29936" height="9.74519" fill="#1865AD"/>
<circle cx="10.0446" cy="16.5668" r="0.974519" fill="#1865AD"/>
</svg>
