<svg width="210" height="213" viewBox="0 0 210 213" fill="none" xmlns="http://www.w3.org/2000/svg">
<g filter="url(#filter0_d_87_136)">
<path d="M4.12066 26.8582C3.92243 25.7476 4.68137 24.693 5.79737 24.5282L160.842 1.63321C161.942 1.47087 162.963 2.23593 163.115 3.33669L187.671 180.185C187.822 181.27 187.071 182.275 185.987 182.438L37.8312 204.646C36.7603 204.806 35.7561 204.085 35.5658 203.019L4.12066 26.8582Z" fill="#1865AD"/>
<path d="M6.0165 26.0121L161.061 3.11712C161.336 3.07653 161.592 3.2678 161.63 3.54299L186.186 180.391C186.223 180.662 186.036 180.914 185.765 180.954L37.6088 203.162C37.3411 203.203 37.0901 203.022 37.0425 202.756L5.59732 26.5946C5.54776 26.317 5.7375 26.0533 6.0165 26.0121Z" stroke="white" stroke-width="3"/>
</g>
<path d="M30.5716 35.8405L146.411 23.2187L149.39 25.6582L35.987 40.7733L30.5716 35.8405Z" fill="white"/>
<path d="M36.4184 45.1078L152.258 32.486L155.237 34.9255L41.8338 50.0407L36.4184 45.1078Z" fill="white"/>
<path d="M27.207 71.6093L37.3023 70.2257C38.1713 70.1066 38.9567 70.7553 39.0038 71.6312L39.4465 79.8584C39.4839 80.552 39.0401 81.1806 38.3739 81.3775L30.6271 83.6674C29.8378 83.9007 29.0079 83.4544 28.7673 82.6673L25.9762 73.5337C25.7061 72.6501 26.2916 71.7347 27.207 71.6093Z" fill="#EAEBEC" stroke="white"/>
<path d="M31.1473 77.3685L34.6408 79.4832L41.0657 69.8154" stroke="#4F4F4F" stroke-width="2"/>
<path d="M29.6898 91.0607L39.7851 89.6771C40.6541 89.558 41.4394 90.2067 41.4866 91.0826L41.9293 99.3098C41.9666 100.003 41.5228 100.632 40.8567 100.829L33.1098 103.119C32.3205 103.352 31.4907 102.906 31.2501 102.119L28.459 92.9852C28.1889 92.1015 28.7744 91.1861 29.6898 91.0607Z" fill="#EAEBEC" stroke="white"/>
<path d="M33.6301 96.82L37.1236 98.9346L43.5485 89.2668" stroke="#4F4F4F" stroke-width="2"/>
<path d="M31.6309 110.566L41.7261 109.182C42.5951 109.063 43.3805 109.712 43.4276 110.588L43.8704 118.815C43.9077 119.509 43.4639 120.137 42.7977 120.334L35.0509 122.624C34.2616 122.857 33.4317 122.411 33.1912 121.624L30.4 112.49C30.13 111.607 30.7154 110.691 31.6309 110.566Z" fill="#EAEBEC" stroke="white"/>
<path d="M35.5712 116.325L39.0647 118.44L45.4895 108.772" stroke="#4F4F4F" stroke-width="2"/>
<path d="M33.5718 130.071L43.667 128.687C44.5361 128.568 45.3214 129.217 45.3685 130.093L45.8113 138.32C45.8486 139.014 45.4048 139.642 44.7386 139.839L36.9918 142.129C36.2025 142.362 35.3726 141.916 35.1321 141.129L32.3409 131.995C32.0709 131.112 32.6563 130.196 33.5718 130.071Z" fill="#EAEBEC" stroke="white"/>
<path d="M35.5128 149.576L45.6081 148.193C46.4771 148.074 47.2624 148.722 47.3096 149.598L47.7523 157.825C47.7896 158.519 47.3458 159.148 46.6797 159.345L38.9328 161.634C38.1435 161.868 37.3137 161.421 37.0731 160.634L34.282 151.501C34.0119 150.617 34.5974 149.702 35.5128 149.576Z" fill="#EAEBEC" stroke="white"/>
<path d="M39.4531 155.336L42.9466 157.45L49.3715 147.782" stroke="#4F4F4F" stroke-width="2"/>
<path d="M39.8368 171.033L49.932 169.649C50.8011 169.53 51.5864 170.179 51.6336 171.055L52.0763 179.282C52.1136 179.976 51.6698 180.604 51.0037 180.801L43.2568 183.091C42.4675 183.325 41.6376 182.878 41.3971 182.091L38.6059 172.958C38.3359 172.074 38.9213 171.159 39.8368 171.033Z" fill="#EAEBEC" stroke="white"/>
<path d="M44.2627 68.9502L138.646 60.6523L140.595 63.7415L46.9152 73.6108L44.2627 68.9502Z" fill="#F6F7FB"/>
<path d="M47.6188 75.1821L108.302 69.1435L110.685 71.0951L50.6513 78.1634L47.6188 75.1821Z" fill="#F6F7FB"/>
<path d="M46.7455 88.4014L141.129 80.1035L143.077 83.1926L49.398 93.062L46.7455 88.4014Z" fill="#F6F7FB"/>
<path d="M50.1016 94.6335L110.784 88.5949L113.167 90.5465L53.1341 97.6148L50.1016 94.6335Z" fill="#F6F7FB"/>
<path d="M49.2283 107.853L143.611 99.5549L145.56 102.644L51.8808 112.513L49.2283 107.853Z" fill="#F6F7FB"/>
<path d="M52.5844 114.085L113.267 108.046L115.65 109.998L55.6169 117.066L52.5844 114.085Z" fill="#F6F7FB"/>
<path d="M51.7112 127.304L146.094 119.006L148.043 122.095L54.3637 131.965L51.7112 127.304Z" fill="#F6F7FB"/>
<path d="M55.0673 133.536L115.75 127.497L118.133 129.449L58.0998 136.517L55.0673 133.536Z" fill="#F6F7FB"/>
<path d="M54.194 146.755L148.577 138.458L150.526 141.547L56.8465 151.416L54.194 146.755Z" fill="#F6F7FB"/>
<path d="M57.55 152.988L118.233 146.949L120.616 148.9L60.5826 155.969L57.55 152.988Z" fill="#F6F7FB"/>
<path d="M54.194 146.755L148.577 138.458L150.526 141.547L56.8465 151.416L54.194 146.755Z" fill="#F6F7FB"/>
<path d="M57.55 152.988L118.233 146.949L120.616 148.9L60.5826 155.969L57.55 152.988Z" fill="#F6F7FB"/>
<path d="M59.0597 168.158L153.443 159.86L155.392 162.949L61.7122 172.819L59.0597 168.158Z" fill="#F6F7FB"/>
<path d="M62.4158 174.39L123.099 168.352L125.482 170.303L65.4483 177.372L62.4158 174.39Z" fill="#F6F7FB"/>
<g filter="url(#filter1_d_87_136)">
<path d="M41.3963 14.6785C41.3355 13.552 42.2178 12.5982 43.3456 12.5712L200.027 8.82147C201.138 8.79489 202.058 9.67913 202.075 10.7903L204.805 189.314C204.821 190.41 203.953 191.315 202.857 191.344L53.0972 195.255C52.0147 195.283 51.1063 194.445 51.0479 193.364L41.3963 14.6785Z" fill="#1865AD"/>
<path d="M43.3814 14.0707L200.063 10.321C200.341 10.3144 200.57 10.5355 200.575 10.8133L203.305 189.337C203.309 189.611 203.092 189.837 202.818 189.845L53.058 193.756C52.7874 193.763 52.5603 193.553 52.5457 193.283L42.8941 14.5976C42.8789 14.3159 43.0995 14.0775 43.3814 14.0707Z" stroke="#EFF4FF" stroke-width="3"/>
</g>
<path d="M66.5492 26.8301L183.063 28.4788L185.721 31.2645L71.3204 32.3886L66.5492 26.8301Z" fill="white"/>
<path d="M71.218 36.7433L187.732 38.392L190.39 41.1776L75.9892 42.3018L71.218 36.7433Z" fill="white"/>
<path d="M58.833 61.9185L69.0217 61.7807C69.8988 61.7688 70.5989 62.5088 70.5385 63.3839L69.9711 71.6034C69.9233 72.2964 69.4059 72.8659 68.7206 72.9798L60.7518 74.3045C59.9399 74.4395 59.1708 73.895 59.0284 73.0844L57.3759 63.6779C57.2161 62.7678 57.9091 61.931 58.833 61.9185Z" fill="#EAEBEC" stroke="white"/>
<path d="M62.0391 68.1166L65.2475 70.6429L72.8071 61.834" stroke="#4F4F4F" stroke-width="2"/>
<path d="M58.9169 81.5274L69.1056 81.3896C69.9827 81.3777 70.6827 82.1177 70.6223 82.9927L70.0549 91.2123C70.0071 91.9053 69.4897 92.4748 68.8045 92.5887L60.8356 93.9134C60.0237 94.0484 59.2547 93.5039 59.1123 92.6933L57.4598 83.2868C57.2999 82.3767 57.993 81.5399 58.9169 81.5274Z" fill="#EAEBEC" stroke="white"/>
<path d="M62.1229 87.7255L65.3314 90.2518L72.891 81.4429" stroke="#4F4F4F" stroke-width="2"/>
<path d="M58.4563 101.123L68.645 100.986C69.5221 100.974 70.2222 101.714 70.1618 102.589L69.5944 110.808C69.5465 111.501 69.0292 112.071 68.3439 112.185L60.3751 113.509C59.5631 113.644 58.7941 113.1 58.6517 112.289L56.9992 102.883C56.8394 101.973 57.5324 101.136 58.4563 101.123Z" fill="#EAEBEC" stroke="white"/>
<path d="M61.6623 107.322L64.8708 109.848L72.4304 101.039" stroke="#4F4F4F" stroke-width="2"/>
<path d="M57.9959 120.72L68.1846 120.582C69.0616 120.57 69.7617 121.31 69.7013 122.185L69.1339 130.404C69.0861 131.097 68.5687 131.667 67.8835 131.781L59.9146 133.106C59.1027 133.241 58.3337 132.696 58.1913 131.885L56.5388 122.479C56.3789 121.569 57.0719 120.732 57.9959 120.72Z" fill="#EAEBEC" stroke="white"/>
<path d="M57.5354 140.316L67.7241 140.178C68.6012 140.166 69.3013 140.906 69.2409 141.781L68.6735 150.001C68.6256 150.694 68.1083 151.263 67.423 151.377L59.4542 152.702C58.6423 152.837 57.8732 152.292 57.7308 151.482L56.0783 142.075C55.9185 141.165 56.6115 140.328 57.5354 140.316Z" fill="#EAEBEC" stroke="white"/>
<path d="M60.7414 146.514L63.9499 149.04L71.5095 140.231" stroke="#4F4F4F" stroke-width="2"/>
<path d="M59.2011 162.14L69.3898 162.003C70.2668 161.991 70.9669 162.731 70.9065 163.606L70.3391 171.825C70.2913 172.518 69.7739 173.088 69.0887 173.202L61.1198 174.526C60.3079 174.661 59.5389 174.117 59.3965 173.306L57.744 163.9C57.5841 162.99 58.2771 162.153 59.2011 162.14Z" fill="#EAEBEC" stroke="white"/>
<path d="M76.0858 61.3665L170.775 64.6808L172.331 67.9852L78.148 66.3167L76.0858 61.3665Z" fill="#F6F7FB"/>
<path d="M78.6541 67.9624L139.62 69.395L141.746 71.6235L81.299 71.2924L78.6541 67.9624Z" fill="#F6F7FB"/>
<path d="M76.1697 80.9753L170.859 84.2897L172.415 87.5941L78.2319 85.9255L76.1697 80.9753Z" fill="#F6F7FB"/>
<path d="M78.7379 87.5715L139.704 89.0042L141.83 91.2327L81.3829 90.9015L78.7379 87.5715Z" fill="#F6F7FB"/>
<path d="M76.2535 100.584L170.943 103.899L172.499 107.203L78.3158 105.534L76.2535 100.584Z" fill="#F6F7FB"/>
<path d="M78.8218 107.18L139.788 108.613L141.914 110.842L81.4667 110.51L78.8218 107.18Z" fill="#F6F7FB"/>
<path d="M76.3374 120.193L171.026 123.508L172.583 126.812L78.3996 125.144L76.3374 120.193Z" fill="#F6F7FB"/>
<path d="M78.9056 126.79L139.871 128.222L141.998 130.451L81.5506 130.12L78.9056 126.79Z" fill="#F6F7FB"/>
<path d="M76.4211 139.802L171.11 143.117L172.666 146.421L78.4834 144.752L76.4211 139.802Z" fill="#F6F7FB"/>
<path d="M78.9894 146.398L139.955 147.831L142.081 150.06L81.6343 149.728L78.9894 146.398Z" fill="#F6F7FB"/>
<path d="M76.4211 139.802L171.11 143.117L172.666 146.421L78.4834 144.752L76.4211 139.802Z" fill="#F6F7FB"/>
<path d="M78.9894 146.398L139.955 147.831L142.081 150.06L81.6343 149.728L78.9894 146.398Z" fill="#F6F7FB"/>
<path d="M78.6312 161.64L173.32 164.954L174.877 168.258L80.6935 166.59L78.6312 161.64Z" fill="#F6F7FB"/>
<path d="M81.1995 168.236L142.165 169.668L144.291 171.897L83.8444 171.566L81.1995 168.236Z" fill="#F6F7FB"/>
<path d="M55.3074 30.2196C55.9494 28.6189 56.2705 27.8186 56.7921 27.7077C56.9292 27.6785 57.0709 27.6785 57.2081 27.7077C57.7297 27.8186 58.0507 28.6189 58.6928 30.2196C59.0579 31.1299 59.2405 31.585 59.5821 31.8946C59.6779 31.9814 59.7819 32.0588 59.8927 32.1255C60.2875 32.3635 60.7804 32.4076 61.7662 32.4959C63.435 32.6454 64.2693 32.7201 64.5241 33.1958C64.5769 33.2944 64.6128 33.4011 64.6303 33.5114C64.7148 34.0445 64.1014 34.6025 62.8746 35.7187L62.5339 36.0286C61.9604 36.5504 61.6736 36.8113 61.5077 37.1369C61.4082 37.3322 61.3415 37.5426 61.3102 37.7595C61.2581 38.1212 61.3421 38.4997 61.51 39.2567L61.5701 39.5272C61.8712 40.8847 62.0218 41.5635 61.8339 41.8971C61.665 42.1968 61.3539 42.3886 61.0103 42.4051C60.6278 42.4233 60.0888 41.9841 59.0109 41.1057C58.3006 40.527 57.9455 40.2377 57.5513 40.1246C57.1911 40.0213 56.8091 40.0213 56.4488 40.1246C56.0546 40.2377 55.6995 40.527 54.9893 41.1057C53.9113 41.9841 53.3723 42.4233 52.9898 42.4051C52.6462 42.3886 52.3352 42.1968 52.1663 41.8971C51.9783 41.5635 52.1289 40.8847 52.4301 39.5272L52.4901 39.2567C52.6581 38.4997 52.742 38.1212 52.6899 37.7595C52.6587 37.5426 52.5919 37.3322 52.4924 37.1369C52.3266 36.8113 52.0398 36.5504 51.4663 36.0286L51.1256 35.7187C49.8988 34.6025 49.2854 34.0445 49.3699 33.5114C49.3874 33.4011 49.4232 33.2944 49.476 33.1958C49.7308 32.7201 50.5652 32.6454 52.234 32.4959C53.2197 32.4076 53.7126 32.3635 54.1075 32.1255C54.2182 32.0588 54.3222 31.9814 54.4181 31.8946C54.7597 31.585 54.9422 31.1299 55.3074 30.2196Z" fill="white" stroke="white" stroke-width="2"/>
<path d="M21.3072 40.2199C21.9493 38.6192 22.2704 37.8188 22.7919 37.7079C22.9291 37.6787 23.0708 37.6787 23.208 37.7079C23.7295 37.8188 24.0506 38.6192 24.6927 40.2199C25.0578 41.1301 25.2404 41.5853 25.582 41.8949C25.6778 41.9817 25.7818 42.059 25.8926 42.1258C26.2874 42.3637 26.7803 42.4079 27.7661 42.4962C29.4348 42.6456 30.2692 42.7203 30.524 43.1961C30.5768 43.2946 30.6127 43.4013 30.6302 43.5117C30.7146 44.0447 30.1012 44.6028 28.8744 45.7189L28.5338 46.0288C27.9602 46.5506 27.6735 46.8115 27.5076 47.1372C27.4081 47.3325 27.3414 47.5428 27.3101 47.7598C27.258 48.1215 27.342 48.5 27.5099 49.2569L27.5699 49.5274C27.8711 50.8849 28.0217 51.5637 27.8337 51.8973C27.6649 52.197 27.3538 52.3889 27.0102 52.4053C26.6277 52.4236 26.0887 51.9844 25.0107 51.106C24.3005 50.5273 23.9454 50.2379 23.5512 50.1249C23.191 50.0216 22.8089 50.0216 22.4487 50.1249C22.0545 50.2379 21.6994 50.5273 20.9892 51.106C19.9112 51.9844 19.3722 52.4236 18.9897 52.4053C18.6461 52.3889 18.335 52.197 18.1662 51.8973C17.9782 51.5637 18.1288 50.8849 18.43 49.5274L18.49 49.2569C18.6579 48.5 18.7419 48.1215 18.6898 47.7598C18.6585 47.5428 18.5918 47.3325 18.4923 47.1372C18.3264 46.8115 18.0397 46.5506 17.4661 46.0288L17.1255 45.7189C15.8987 44.6028 15.2853 44.0447 15.3697 43.5117C15.3872 43.4013 15.4231 43.2946 15.4759 43.1961C15.7307 42.7203 16.5651 42.6456 18.2338 42.4962C19.2196 42.4079 19.7125 42.3637 20.1074 42.1258C20.2181 42.059 20.3221 41.9817 20.4179 41.8949C20.7595 41.5853 20.9421 41.1301 21.3072 40.2199Z" fill="white" stroke="white" stroke-width="2"/>
<defs>
<filter id="filter0_d_87_136" x="0.0891113" y="1.61157" width="191.602" height="211.057" filterUnits="userSpaceOnUse" color-interpolation-filters="sRGB">
<feFlood flood-opacity="0" result="BackgroundImageFix"/>
<feColorMatrix in="SourceAlpha" type="matrix" values="0 0 0 0 0 0 0 0 0 0 0 0 0 0 0 0 0 0 127 0" result="hardAlpha"/>
<feOffset dy="4"/>
<feGaussianBlur stdDeviation="2"/>
<feComposite in2="hardAlpha" operator="out"/>
<feColorMatrix type="matrix" values="0 0 0 0 0 0 0 0 0 0 0 0 0 0 0 0 0 0 0.25 0"/>
<feBlend mode="normal" in2="BackgroundImageFix" result="effect1_dropShadow_87_136"/>
<feBlend mode="normal" in="SourceGraphic" in2="effect1_dropShadow_87_136" result="shape"/>
</filter>
<filter id="filter1_d_87_136" x="37.3933" y="8.8208" width="171.412" height="194.435" filterUnits="userSpaceOnUse" color-interpolation-filters="sRGB">
<feFlood flood-opacity="0" result="BackgroundImageFix"/>
<feColorMatrix in="SourceAlpha" type="matrix" values="0 0 0 0 0 0 0 0 0 0 0 0 0 0 0 0 0 0 127 0" result="hardAlpha"/>
<feOffset dy="4"/>
<feGaussianBlur stdDeviation="2"/>
<feComposite in2="hardAlpha" operator="out"/>
<feColorMatrix type="matrix" values="0 0 0 0 0 0 0 0 0 0 0 0 0 0 0 0 0 0 0.25 0"/>
<feBlend mode="normal" in2="BackgroundImageFix" result="effect1_dropShadow_87_136"/>
<feBlend mode="normal" in="SourceGraphic" in2="effect1_dropShadow_87_136" result="shape"/>
</filter>
</defs>
</svg>
