<svg width="32" height="52" viewBox="0 0 32 52" fill="none" xmlns="http://www.w3.org/2000/svg">
<path d="M4.23506 4.05762L4.25863 4.03173L4.2805 4.0044C5.89996 1.98048 7.37932 1.34902 8.3557 1.16597C8.65464 1.10993 8.91813 1.09369 9.13778 1.09729V28.0718H1.69542C1.63108 27.5341 1.54817 26.7869 1.46467 25.8839C1.28648 23.9571 1.1065 21.3301 1.09719 18.521C1.08786 15.706 1.25023 12.7413 1.74442 10.1277C2.24452 7.48293 3.05721 5.35107 4.23506 4.05762Z" stroke="#1865AD" stroke-width="2.19363"/>
<path d="M15.1926 47.473L15.1671 47.4976L15.1433 47.5239C13.5459 49.282 12.0708 49.8477 11.0654 50.0137C10.7619 50.0638 10.4933 50.0787 10.268 50.0758L10.268 26.6833L17.7649 26.6833C17.8244 27.1431 17.8979 27.7575 17.9715 28.489C18.141 30.1738 18.3096 32.4695 18.3089 34.923C18.3083 37.3829 18.1372 39.9645 17.6426 42.2342C17.1426 44.5289 16.3422 46.3613 15.1926 47.473Z" stroke="#1865AD" stroke-width="2.19363"/>
<circle cx="15.8236" cy="26.0982" r="14.2551" fill="#CAECFB" stroke="#1865AD" stroke-width="2.19363"/>
<circle cx="15.8236" cy="26.0983" r="5.55567" fill="white" stroke="#1865AD" stroke-width="2.19363"/>
<rect x="9.17116" y="26.61" width="2.04692" height="15.3519" fill="#1865AD"/>
<circle cx="15.8236" cy="26.0983" r="1.53519" fill="#1865AD"/>
</svg>
